<svg xmlns="http://www.w3.org/2000/svg" xmlns:xlink="http://www.w3.org/1999/xlink" viewBox="0 0 512 452.12"><defs><style>.cls-1{fill:none;}.cls-2{fill:#008cba;}.cls-3{clip-path:url(#clip-path);}.cls-4{fill:#dddfe0;}.cls-5{fill:#ddbc9e;}.cls-6{fill:#e2cbb5;}.cls-7{fill:#f98888;}.cls-8{fill:#363637;}.cls-9{fill:#d8b28f;}.cls-10{fill:#821717;}.cls-11{fill:#fff;}.cls-12{fill:#929495;}</style><clipPath id="clip-path"><rect class="cls-1" x="37.09" y="25.58" width="437.81" height="437.81"/></clipPath></defs><g id="Layer_4" data-name="Layer 4"><rect class="cls-2" x="63.48" y="65.58" width="385.04" height="346.68" rx="33.19"/></g><g id="Layer_8" data-name="Layer 8"><g class="cls-3"><polygon class="cls-4" points="303.76 296.22 295.8 292.24 216.2 292.24 208.24 296.22 256 371.85 303.76 296.22"/></g><g class="cls-3"><path class="cls-5" d="M315.7,204.69c-4,0-4,4.42-4,4.42v-4.42c0-4.24-.07-8.31-.26-12.19C295.37,176.83,256,176.82,256,176.82s-39.37,0-55.45,15.68c-.2,3.88-.26,7.95-.27,12.19v31.82l15.92,39.81,20.32,15.9a11.94,11.94,0,0,0,8.91,4h21.14a11.94,11.94,0,0,0,8.91-4l20.32-15.9,12.77-31.91c11.28-.81,15.09-17.93,15.09-30.88C323.66,209.11,319.68,204.69,315.7,204.69Z"/></g><g class="cls-3"><path class="cls-6" d="M200.28,204.69v4.42s0-4.42-4-4.42-8,4.42-8,8.84c0,12.95,3.81,30.07,15.09,30.88l12.77,31.91,20.32,15.9a11.94,11.94,0,0,0,8.91,4H256V176.82s-39.37,0-55.45,15.68C200.35,196.38,200.29,200.45,200.28,204.69Z"/></g><g class="cls-3"><path class="cls-7" d="M236.1,252.43h39.8s0,11.95-19.9,11.95S236.1,252.43,236.1,252.43Z"/></g><g class="cls-3"><path class="cls-8" d="M279.88,213.93a24.86,24.86,0,0,1,11.87,2.7,6.84,6.84,0,0,0-3-6.33,13,13,0,0,0-14.86,0,7.18,7.18,0,0,0-3,5A28.21,28.21,0,0,1,279.88,213.93Z"/></g><g class="cls-3"><path class="cls-8" d="M232.09,213.93a24.79,24.79,0,0,0-11.86,2.7,6.81,6.81,0,0,1,3-6.33,13,13,0,0,1,14.86,0,7.18,7.18,0,0,1,3,5A28.21,28.21,0,0,0,232.09,213.93Z"/></g><g class="cls-3"><path class="cls-9" d="M266.57,296.22H245.43a11.94,11.94,0,0,1-8.91-4l-20.32-15.9v17.91s0,29.85,39.8,29.85,39.8-29.85,39.8-29.85V276.32l-20.32,15.9A11.94,11.94,0,0,1,266.57,296.22Z"/></g><g class="cls-3"><path class="cls-8" d="M219.86,182.13c-7.55,2.34-14.69,5.73-19.58,10.62,0,14.09,9.24,20.89,9.24,20.89C208.35,201.88,208.29,194.21,219.86,182.13Z"/></g><g class="cls-3"><path class="cls-8" d="M223.62,181.05v18.5c11.4,0,20.5-16.14,23.56-22.31A135.24,135.24,0,0,0,223.62,181.05Z"/></g><g class="cls-3"><path class="cls-8" d="M301.15,185.6v28c9.9,0,10.53-18.55,10.57-20.89A37.73,37.73,0,0,0,301.15,185.6Z"/></g><g class="cls-3"><path class="cls-10" d="M174.37,238.3V160.21c-2.77-1-5.44-2-8-2.9v81c-10.39,6.84-4,27.26-4,38h15.92C178.35,265.56,184.76,245.14,174.37,238.3Z"/></g><g class="cls-3"><path class="cls-8" d="M363.46,149c0-4-99.5-31.84-107.46-31.84S148.54,145,148.54,149c0,2.49,29.58,12.77,51.74,20.12v23.67C216.2,176.82,256,176.82,256,176.82s39.8,0,55.72,15.93V169.08C333.88,161.73,363.46,151.45,363.46,149Z"/></g><g class="cls-3"><polygon class="cls-11" points="303.62 296.46 303.76 296.23 295.8 292.25 256.06 312.07 279.12 335.26 303.62 296.46"/></g><g class="cls-3"><polygon class="cls-10" points="271.92 371.85 260.78 331.25 267.94 324.1 255.92 312.06 243.99 323.99 251.23 331.23 240.08 371.85 271.92 371.85"/></g><g class="cls-3"><polygon class="cls-11" points="208.38 296.46 208.24 296.23 216.2 292.25 255.94 312.07 232.88 335.26 208.38 296.46"/></g><g class="cls-3"><path class="cls-8" d="M128.64,371.85l15.92-43.78a23.79,23.79,0,0,1,12.11-11.87l51.57-20L256,371.85Z"/></g><g class="cls-3"><path class="cls-8" d="M383.36,371.85l-15.92-43.78a23.79,23.79,0,0,0-12.11-11.87l-51.57-20L256,371.85Z"/></g><g class="cls-3"><polygon class="cls-12" points="256 371.85 208.24 296.23 172.42 308.17 240.08 371.85 256 371.85"/></g><g class="cls-3"><polygon class="cls-12" points="256 371.85 303.76 296.23 339.58 308.17 271.92 371.85 256 371.85"/></g></g></svg>