<svg xmlns="http://www.w3.org/2000/svg" xmlns:xlink="http://www.w3.org/1999/xlink" viewBox="0 0 512 452.12"><defs><style>.cls-1{fill:none;}.cls-2{fill:#008cba;}.cls-3{clip-path:url(#clip-path);}.cls-4{fill:#ce852e;}.cls-5{fill:#cc9f7a;}.cls-6{fill:#ddbc9e;}.cls-7{fill:#fff;}.cls-8{fill:#ffa939;}.cls-9{fill:#b3babe;}.cls-10{fill:#e2cbb5;}.cls-11{fill:#363637;}.cls-12{fill:#f98888;}</style><clipPath id="clip-path"><rect class="cls-1" x="47.66" y="28.36" width="420.35" height="420.35"/></clipPath></defs><g id="Layer_3" data-name="Layer 3"><rect class="cls-2" x="63.48" y="65.58" width="385.04" height="346.68" rx="33.19"/><g class="cls-3"><path class="cls-4" d="M257.84,295.86,231.09,292,169,306.83a30.55,30.55,0,0,0-19.74,18.31l-13.73,35.68H257.84Z"/></g><g class="cls-3"><path class="cls-4" d="M257.84,295.86,284.59,292l62.06,14.79a30.59,30.59,0,0,1,19.75,18.31l13.72,35.68H257.84Z"/></g><g class="cls-3"><path class="cls-5" d="M257.84,289.63c-12.55-4.18-27.36-12.12-38.22-28.92v51.92a51.77,51.77,0,0,0,3.71,19.24l11.58,28.95h45.85l11.58-28.95a51.77,51.77,0,0,0,3.71-19.24V260.71C285.19,277.51,270.39,285.45,257.84,289.63Z"/></g><g class="cls-3"><path class="cls-6" d="M219.62,260.71v51.92a51.77,51.77,0,0,0,3.71,19.24l11.58,28.95h22.93V289.63C245.29,285.45,230.48,277.51,219.62,260.71Z"/></g><g class="cls-3"><path class="cls-7" d="M257.75,345.53a115.39,115.39,0,0,1-30.66-4l7.73,19.33h45.86l7.73-19.33A115.39,115.39,0,0,1,257.75,345.53Z"/></g><g class="cls-3"><path class="cls-8" d="M212,360.82h22.93l-11.58-28.95a51.77,51.77,0,0,1-3.71-19.24V284.39C212,292,204.34,299.68,196.7,311.14L212,318.78l-19.11,19.11Z"/></g><g class="cls-3"><path class="cls-8" d="M303.69,360.82H280.76l11.58-28.95a51.77,51.77,0,0,0,3.71-19.24V284.39c7.64,7.65,15.29,15.29,22.93,26.75l-15.29,7.64,19.11,19.11Z"/></g><g class="cls-3"><rect class="cls-7" x="158.48" y="322.61" width="49.68" height="34.39" rx="3.82"/></g><g class="cls-3"><rect class="cls-9" x="162.3" y="334.07" width="15.29" height="19.11"/></g><g class="cls-3"><path class="cls-9" d="M204.34,322.61H189.05V320.7a5.73,5.73,0,1,0-11.46,0v1.91H162.3a3.83,3.83,0,0,0-3.82,3.82v3.82h49.68v-3.82A3.83,3.83,0,0,0,204.34,322.61Z"/></g><g class="cls-3"><path class="cls-6" d="M315.16,197.92h-3.82v-.08c-.07-34.42-3.92-64.88-53.5-64.88s-53.43,30.46-53.5,64.88v.08h-3.82c-3.82,0-7.65,4.24-7.65,8.49,0,11.81,3.31,27.25,16,29.44,9.33,34.78,31.4,47.92,49,53.78,17.59-5.86,39.66-19,49-53.78,12.67-2.19,16-17.63,16-29.44C322.8,202.16,319,197.92,315.16,197.92Z"/></g><g class="cls-3"><path class="cls-10" d="M204.34,197.84v.08h-3.82c-3.82,0-7.65,4.24-7.65,8.49,0,11.81,3.31,27.25,16,29.44,9.33,34.78,31.4,47.92,49,53.78V133C208.25,133,204.41,163.42,204.34,197.84Z"/></g><g class="cls-3"><path class="cls-11" d="M234.77,203.63c5.47,0,10,1.06,11.31,4.34,0-3.83-3.83-9.35-11.31-9.35s-11.67,5.52-11.31,9.35C224.73,204.69,229.31,203.63,234.77,203.63Z"/></g><g class="cls-3"><path class="cls-11" d="M280.33,203.63c5.47,0,10,1.06,11.31,4.34,0-3.83-3.83-9.35-11.31-9.35S268.67,204.14,269,208C270.29,204.69,274.87,203.63,280.33,203.63Z"/></g><g class="cls-3"><path class="cls-11" d="M296.05,261.46c42,19.11,30.85,65.14,53.5,99.36-49.68-22.93-53.5-45.86-53.5-76.43Z"/></g><g class="cls-3"><path class="cls-11" d="M239.05,132.86a9.07,9.07,0,0,0-4.14-1.32c-42-3.82-45.59,51.77-30.6,67.28,6.85-2.07,32-22.18,37.21-45.11,13.37,26.49,70.79,47,69.82,46.61C352.78,128.87,245.7,102.6,239.05,132.86Z"/></g><g class="cls-3"><path class="cls-12" d="M238.73,247.6h38.21s0,11.46-19.1,11.46S238.73,247.6,238.73,247.6Z"/></g></g></svg>