<svg xmlns="http://www.w3.org/2000/svg" viewBox="0 0 512 452.12"><defs><style>.cls-1{fill:#e8edee;}.cls-2{fill:#ffa939;}.cls-3{fill:#b3babe;}.cls-4{fill:#ce852e;}.cls-5{fill:#ba752b;}.cls-6{font-size:46px;fill:#515151;}.cls-6,.cls-9{font-family:ArialRoundedMTBold, Arial Rounded MT Bold;}.cls-7{letter-spacing:-0.04em;}.cls-8{letter-spacing:-0.06em;}.cls-9{font-size:205.31px;fill:#595959;}</style></defs><g id="Layer_17" data-name="Layer 17"><path class="cls-1" d="M64.45,363.91a22.54,22.54,0,0,1-1-7.15q.1-91.11.1-182.2c2.78-1.86,6.07-1.28,9.18-1.28q80.94-.06,161.89,0,102.48,0,205,0c3.11,0,6.4-.58,9.19,1.28l0,189.39c-5.19,20.21-21.1,31.12-45.5,31.12q-147.92,0-295.82,0c-19.27,0-33-7.85-41.47-22.5C64.4,369.86,63.45,367,64.45,363.91Z"/><path class="cls-2" d="M405.83,65.15c23.64,0,42.83,15.95,42.95,36,.12,18.2-.07,36.41-.12,54.61-2.59,1.92-5.75,1.21-8.67,1.21q-140.7.06-281.41,0-43.64,0-87.28,0c-2.61,0-5.41.55-7.67-1.22,0-18.91-.52-37.83,0-56.72S83.8,65.19,106.45,65.16a3.32,3.32,0,0,1,1.59,3c.08,10.82.71,21.65-.33,32.45-1.31,2.36-2.27,1.5-3-.29s.09-3.64-.73-5.42c-6.32,4.71-9.94,17.22-4.07,27s15.39,15.1,28.63,14.83c12.8-.27,22-5.58,27.19-15.33,5.27-10,3.32-19.45-5-27.85-1.19-1.19-2.56-2.26-3-3.87-.84-7-.38-14.08-.31-21.12a3.69,3.69,0,0,1,1.61-3.41H363.36a3.36,3.36,0,0,1,1.58,3c.09,10.82.72,21.65-.32,32.45-1.31,2.36-2.27,1.5-3-.29s.09-3.64-.73-5.42c-6.32,4.71-9.94,17.22-4.07,27s15.38,15.1,28.62,14.83c12.81-.27,22-5.58,27.2-15.33,5.27-10,3.32-19.45-5.05-27.84-1.19-1.2-2.56-2.27-3-3.88-.84-7-.38-14.08-.31-21.12A3.69,3.69,0,0,1,405.83,65.15Z"/><path class="cls-3" d="M64.45,363.91c1.42,12.59,16.78,26.42,32.08,29a71.88,71.88,0,0,0,11.91.89c98.06,0,196.13-.22,294.19.14,21.78.08,40.25-11.44,45-28.16a8.14,8.14,0,0,1,1.09-1.81c-.18,6.1.64,12.21-.75,18.31-3.93,17.31-20.7,29.52-41.31,29.53q-150.48.07-301,0c-23.58,0-42.2-16-42.15-36.21C63.56,371.7,62.27,367.68,64.45,363.91Z"/><path class="cls-4" d="M448.77,174.56c-1.17,0-2.34.09-3.51.09H67c-1.17,0-2.34-.06-3.5-.09q0-8.92.1-17.84c1.71-.86,3.6-.43,5.4-.43q187.11,0,374.24,0c1.8,0,3.68-.43,5.4.43Q448.72,165.65,448.77,174.56Z"/><path class="cls-3" d="M148.93,65.15q.12,12.85.26,25.71c2,9.53,2.53,18.81-7.38,25.79-6.58,4.64-14.14,5.57-22.06,3-7.56-2.4-12.14-7.25-14.07-13.9a4.06,4.06,0,0,1,.55-4.09q.1-18.27.22-36.55c0-6.28,0-12.55.09-18.82.16-9.92,9.65-17.93,21.15-18s21,8,21.15,18C148.94,52.61,148.9,58.88,148.93,65.15Z"/><path class="cls-3" d="M405.83,65.15l.26,25.71c1.58,7.67,2.53,15.31-3.45,22.08a22.89,22.89,0,0,1-20.93,7.79c-9.36-1.19-15.65-6-18.73-13.69-.7-1.74-1.22-3.58.15-5.33q.12-18.27.23-36.56c0-6.4,0-12.81.09-19.22.15-9.88,9.79-17.74,21.39-17.54s20.75,7.79,20.9,17.54C405.84,52.34,405.81,58.75,405.83,65.15Z"/><path class="cls-5" d="M448.67,156.72h-385v-.92h385Z"/><path class="cls-4" d="M363.13,101.71C365.51,117.38,383.2,125,397,116.17c5.63-3.6,8.83-8.44,8.85-14.63,0-3.56.16-7.12.25-10.68,13.23,8.86,14.63,28.52.71,39.7-13.28,10.66-34.51,9.83-46.85-2.19-10.64-10.37-9.68-28.6,2.17-36.22C363.31,95.35,361.68,98.68,363.13,101.71Z"/><path class="cls-4" d="M106.23,101.71c1.91,13.39,14,20.88,28,17.27,8.23-2.13,14.34-8.8,14.69-16.17.2-4,.22-8,.32-12,13.23,8.86,14.63,28.52.7,39.7-13.28,10.66-34.51,9.83-46.85-2.19C92.41,118,93.37,99.75,105.22,92.15,106.41,95.35,104.77,98.69,106.23,101.71Z"/><text class="cls-6" transform="translate(211.23 128.26)"><tspan class="cls-7">D</tspan><tspan class="cls-8" x="32.3" y="0">A</tspan><tspan x="62.49" y="0">Y</tspan></text><text class="cls-9" transform="translate(194.99 355.39)">2</text></g></svg>