<?xml version="1.0" encoding="UTF-8"?><svg id="p" xmlns="http://www.w3.org/2000/svg" viewBox="0 0 512 452.12"><defs><style>.ad{fill:#fff;}.ae{fill:#821717;}.af{fill:#ce852e;}.ag{fill:#bc782e;}.ah{fill:#595959;}</style></defs><g><path class="ah" d="M123.81,391.69c-6.66,.06-13.33,.08-19.99,.19-6.35,.1-11.66,2.07-15.95,5.95-1.8,1.63-1.96,2.89-.08,4.63,4.14,3.81,9.24,5.8,15.4,6.07,1.43,.06,2.86,.02,4.29,.02,99.25,0,198.49-.03,297.74,.05,11.22,0,19.25-3.39,23.18-12.53,1.58,15.62,2.05,22.87-14.66,29.08H98.06c-7.39-2.72-13.32-6.61-14.76-13.51-.63-3.03-.42-6.19-.42-9.3-.02-119.21,0-238.42-.04-357.64,0-8.92,5.85-14.27,15.22-17.72h25.75c0,121.57,0,243.14,0,364.72Z"/><path class="af" d="M123.81,26.97H412.78c12.11,3.33,16.37,10.31,16.35,20.53-.22,108.22-.24,216.43,.03,324.65,.03,10.77-8.05,19.6-24.12,19.54-92-.34-183.99-.16-275.99-.17-1.74,0-3.48-.11-5.23-.17,0-121.46,0-242.92,0-364.38Z"/><path class="ag" d="M428.06,42.98c0,9.07-.24,219.27,.03,328.91,.03,10.91-8.05,19.86-24.13,19.8-92-.34-184-.17-276-.17-1.74,0-5.23-.17-5.23-.17,0,0,305.33-357.43,305.32-348.37Z"/></g><g><path class="ad" d="M181,167.93l-1.71-4.49h-14.55l-1.71,4.59c-.67,1.79-1.24,3-1.71,3.63-.47,.63-1.25,.94-2.32,.94-.91,0-1.72-.33-2.42-1-.7-.67-1.05-1.42-1.05-2.27,0-.49,.08-.99,.24-1.51,.16-.52,.43-1.25,.81-2.17l9.16-23.24c.26-.67,.57-1.47,.94-2.4,.37-.94,.76-1.71,1.17-2.33,.41-.62,.96-1.12,1.63-1.5,.68-.38,1.51-.57,2.5-.57s1.85,.19,2.53,.57c.68,.38,1.22,.88,1.64,1.48,.41,.6,.76,1.25,1.05,1.94,.29,.69,.65,1.62,1.09,2.77l9.35,23.1c.73,1.76,1.1,3.04,1.1,3.83s-.35,1.59-1.04,2.28c-.69,.69-1.53,1.04-2.5,1.04-.57,0-1.06-.1-1.46-.31s-.75-.48-1.03-.83c-.28-.35-.57-.89-.89-1.61-.32-.72-.59-1.36-.82-1.92Zm-14.36-9.94h10.69l-5.4-14.77-5.3,14.77Z"/><path class="ad" d="M210.91,168.83v-.85c-.8,1.01-1.64,1.86-2.51,2.54s-1.84,1.19-2.88,1.53c-1.04,.33-2.23,.5-3.56,.5-1.61,0-3.06-.33-4.33-1-1.28-.67-2.27-1.59-2.97-2.76-.83-1.42-1.25-3.45-1.25-6.1v-13.21c0-1.33,.3-2.33,.9-2.99,.6-.66,1.4-.99,2.39-.99s1.82,.33,2.44,1c.62,.67,.93,1.66,.93,2.98v10.67c0,1.55,.13,2.84,.39,3.89,.26,1.05,.73,1.87,1.4,2.47,.67,.59,1.59,.89,2.75,.89s2.18-.33,3.17-1c.99-.67,1.72-1.54,2.17-2.61,.37-.94,.56-3.01,.56-6.2v-8.11c0-1.32,.31-2.31,.93-2.98,.62-.67,1.42-1,2.42-1s1.79,.33,2.39,.99c.6,.66,.9,1.66,.9,2.99v19.31c0,1.27-.29,2.22-.87,2.86-.58,.63-1.32,.95-2.23,.95s-1.66-.33-2.26-.99c-.59-.66-.89-1.58-.89-2.77Z"/><path class="ad" d="M224.17,146.08h.73v-4c0-1.07,.03-1.92,.09-2.53,.06-.61,.21-1.14,.48-1.57,.26-.46,.63-.83,1.12-1.11,.49-.28,1.03-.43,1.64-.43,.85,0,1.61,.32,2.29,.95,.46,.42,.74,.94,.87,1.55,.12,.61,.18,1.48,.18,2.6v4.54h2.44c.94,0,1.66,.22,2.16,.67,.5,.45,.74,1.02,.74,1.72,0,.9-.35,1.52-1.06,1.88-.71,.36-1.72,.54-3.04,.54h-1.25v12.26c0,1.04,.04,1.84,.11,2.4,.07,.56,.27,1.02,.59,1.37,.32,.35,.83,.52,1.55,.52,.39,0,.92-.07,1.59-.21,.67-.14,1.19-.21,1.56-.21,.54,0,1.02,.22,1.45,.65,.43,.43,.65,.96,.65,1.6,0,1.07-.59,1.9-1.76,2.47s-2.86,.85-5.05,.85c-2.08,0-3.66-.35-4.74-1.05s-1.78-1.67-2.11-2.91c-.33-1.24-.5-2.89-.5-4.96v-12.79h-.88c-.96,0-1.69-.23-2.2-.68-.5-.46-.76-1.03-.76-1.73s.26-1.27,.79-1.72c.53-.45,1.3-.67,2.31-.67Z"/><path class="ad" d="M248.02,139.63v9.89c.85-.98,1.67-1.75,2.48-2.32,.8-.57,1.7-1,2.67-1.28,.98-.28,2.03-.43,3.15-.43,1.69,0,3.19,.36,4.5,1.07,1.31,.72,2.34,1.76,3.09,3.12,.47,.8,.79,1.69,.95,2.67,.16,.98,.24,2.12,.24,3.41v12.77c0,1.33-.3,2.34-.92,3.03-.61,.68-1.42,1.03-2.43,1.03-2.2,0-3.3-1.35-3.3-4.05v-11.25c0-2.13-.32-3.77-.95-4.92s-1.84-1.72-3.61-1.72c-1.19,0-2.26,.34-3.21,1.01-.95,.68-1.67,1.6-2.14,2.77-.36,.99-.54,2.76-.54,5.3v8.81c0,1.32-.3,2.32-.89,3.02-.59,.69-1.42,1.04-2.48,1.04-2.2,0-3.3-1.35-3.3-4.05v-28.91c0-1.35,.29-2.36,.87-3.04,.58-.68,1.39-1.01,2.43-1.01s1.88,.34,2.48,1.03c.59,.68,.89,1.69,.89,3.03Z"/><path class="ad" d="M290.3,160.67h-13.04c.02,1.51,.32,2.85,.92,4,.59,1.16,1.38,2.03,2.37,2.61,.98,.59,2.07,.88,3.26,.88,.8,0,1.53-.09,2.18-.28,.66-.19,1.3-.48,1.92-.88,.62-.4,1.19-.83,1.71-1.28,.52-.46,1.2-1.07,2.03-1.86,.34-.29,.83-.44,1.46-.44,.68,0,1.24,.19,1.66,.56,.42,.37,.63,.9,.63,1.59,0,.6-.24,1.31-.71,2.11-.47,.81-1.18,1.58-2.14,2.32-.95,.74-2.15,1.35-3.59,1.84-1.44,.49-3.1,.73-4.97,.73-4.28,0-7.61-1.22-9.99-3.66-2.38-2.44-3.56-5.75-3.56-9.94,0-1.97,.29-3.8,.88-5.48s1.44-3.13,2.56-4.33c1.12-1.2,2.51-2.13,4.15-2.77,1.64-.64,3.47-.96,5.47-.96,2.6,0,4.84,.55,6.7,1.65,1.86,1.1,3.26,2.52,4.19,4.26,.93,1.74,1.39,3.52,1.39,5.32,0,1.68-.48,2.76-1.44,3.26-.96,.5-2.31,.74-4.05,.74Zm-13.04-3.78h12.08c-.16-2.28-.78-3.98-1.84-5.11-1.07-1.13-2.47-1.7-4.21-1.7s-3.02,.57-4.09,1.72c-1.07,1.15-1.71,2.84-1.94,5.09Z"/><path class="ad" d="M307.47,149.18v.81c1.17-1.55,2.45-2.68,3.84-3.41,1.39-.72,2.99-1.09,4.8-1.09s3.33,.38,4.71,1.15c1.38,.77,2.42,1.85,3.1,3.25,.44,.81,.72,1.69,.85,2.64,.13,.94,.2,2.15,.2,3.61v12.4c0,1.33-.3,2.34-.92,3.03-.61,.68-1.4,1.03-2.38,1.03s-1.8-.35-2.42-1.05c-.62-.7-.93-1.7-.93-3v-11.11c0-2.2-.3-3.88-.92-5.04-.61-1.16-1.83-1.75-3.65-1.75-1.19,0-2.27,.35-3.25,1.06s-1.69,1.68-2.15,2.92c-.33,.99-.49,2.85-.49,5.57v8.35c0,1.35-.31,2.36-.94,3.04-.63,.68-1.44,1.01-2.43,1.01s-1.75-.35-2.37-1.05c-.62-.7-.93-1.7-.93-3v-19.26c0-1.27,.28-2.22,.83-2.84,.55-.63,1.31-.94,2.27-.94,.59,0,1.11,.14,1.59,.42,.47,.28,.85,.69,1.14,1.25,.28,.55,.43,1.23,.43,2.03Z"/><path class="ad" d="M331.98,146.08h.73v-4c0-1.07,.03-1.92,.09-2.53,.06-.61,.21-1.14,.48-1.57,.26-.46,.63-.83,1.12-1.11,.49-.28,1.03-.43,1.64-.43,.85,0,1.61,.32,2.29,.95,.46,.42,.74,.94,.87,1.55,.12,.61,.18,1.48,.18,2.6v4.54h2.44c.94,0,1.66,.22,2.16,.67,.5,.45,.74,1.02,.74,1.72,0,.9-.35,1.52-1.06,1.88-.71,.36-1.72,.54-3.04,.54h-1.25v12.26c0,1.04,.04,1.84,.11,2.4,.07,.56,.27,1.02,.59,1.37,.32,.35,.83,.52,1.55,.52,.39,0,.92-.07,1.59-.21,.67-.14,1.19-.21,1.56-.21,.54,0,1.02,.22,1.45,.65,.43,.43,.65,.96,.65,1.6,0,1.07-.59,1.9-1.76,2.47s-2.86,.85-5.05,.85c-2.08,0-3.66-.35-4.74-1.05s-1.78-1.67-2.11-2.91c-.33-1.24-.5-2.89-.5-4.96v-12.79h-.88c-.96,0-1.69-.23-2.2-.68-.5-.46-.76-1.03-.76-1.73s.26-1.27,.79-1.72c.53-.45,1.3-.67,2.31-.67Z"/><path class="ad" d="M352.68,142.39c-.93,0-1.72-.28-2.38-.85-.66-.57-.99-1.38-.99-2.42,0-.94,.34-1.72,1.01-2.33,.68-.61,1.46-.92,2.36-.92s1.63,.28,2.29,.83c.67,.55,1,1.36,1,2.42s-.33,1.83-.98,2.4c-.65,.58-1.42,.87-2.32,.87Zm3.3,6.88v19.26c0,1.33-.32,2.34-.95,3.03s-1.44,1.03-2.42,1.03-1.77-.35-2.38-1.05c-.61-.7-.92-1.7-.92-3v-19.07c0-1.32,.31-2.31,.92-2.98,.61-.67,1.4-1,2.38-1s1.78,.33,2.42,1c.63,.67,.95,1.6,.95,2.78Z"/><path class="ad" d="M386.76,164.34c0,.83-.25,1.72-.74,2.66-.5,.94-1.25,1.84-2.27,2.7-1.02,.85-2.3,1.54-3.84,2.06-1.55,.52-3.29,.78-5.22,.78-4.12,0-7.33-1.2-9.64-3.6-2.31-2.4-3.47-5.62-3.47-9.66,0-2.73,.53-5.15,1.59-7.25,1.06-2.1,2.59-3.72,4.59-4.87s4.39-1.72,7.18-1.72c1.72,0,3.31,.25,4.75,.76,1.44,.5,2.66,1.16,3.66,1.95,1,.8,1.77,1.65,2.29,2.55,.53,.9,.79,1.75,.79,2.53s-.3,1.47-.89,2.03c-.59,.55-1.32,.83-2.16,.83-.55,0-1.01-.14-1.38-.43-.37-.28-.78-.74-1.23-1.38-.81-1.24-1.66-2.16-2.55-2.78-.89-.62-2.01-.93-3.38-.93-1.97,0-3.56,.77-4.76,2.31-1.21,1.54-1.81,3.64-1.81,6.31,0,1.25,.15,2.4,.46,3.45,.31,1.05,.76,1.95,1.34,2.69,.59,.74,1.29,1.3,2.12,1.68,.83,.38,1.74,.57,2.73,.57,1.33,0,2.48-.31,3.43-.93,.95-.62,1.79-1.56,2.53-2.83,.41-.75,.85-1.33,1.32-1.76,.47-.42,1.05-.63,1.73-.63,.81,0,1.49,.31,2.03,.93,.54,.62,.81,1.28,.81,1.98Z"/><path class="ad" d="M149.07,199.97v26.05h14.7c1.17,0,2.07,.29,2.7,.85,.63,.57,.94,1.29,.94,2.15s-.31,1.59-.93,2.14c-.62,.55-1.52,.82-2.71,.82h-17.5c-1.58,0-2.71-.35-3.41-1.05-.69-.7-1.04-1.83-1.04-3.39v-27.56c0-1.46,.33-2.56,.99-3.3,.66-.73,1.53-1.1,2.6-1.1s1.97,.36,2.65,1.09c.67,.72,1.01,1.83,1.01,3.31Z"/><path class="ad" d="M190.3,220.67h-13.04c.02,1.51,.32,2.85,.92,4,.59,1.16,1.38,2.03,2.37,2.61,.98,.59,2.07,.88,3.26,.88,.8,0,1.53-.09,2.18-.28,.66-.19,1.3-.48,1.92-.88,.62-.4,1.19-.83,1.71-1.28,.52-.46,1.2-1.07,2.03-1.86,.34-.29,.83-.44,1.46-.44,.68,0,1.24,.19,1.66,.56,.42,.37,.63,.9,.63,1.59,0,.6-.24,1.31-.71,2.11-.47,.81-1.18,1.58-2.14,2.32-.95,.74-2.15,1.35-3.59,1.84-1.44,.49-3.1,.73-4.97,.73-4.28,0-7.61-1.22-9.99-3.66-2.38-2.44-3.56-5.75-3.56-9.94,0-1.97,.29-3.8,.88-5.48s1.44-3.13,2.56-4.33c1.12-1.2,2.51-2.13,4.15-2.77,1.64-.64,3.47-.96,5.47-.96,2.6,0,4.84,.55,6.7,1.65,1.86,1.1,3.26,2.52,4.19,4.26,.93,1.74,1.39,3.52,1.39,5.32,0,1.68-.48,2.76-1.44,3.26-.96,.5-2.31,.74-4.05,.74Zm-13.04-3.78h12.08c-.16-2.28-.78-3.98-1.84-5.11-1.07-1.13-2.47-1.7-4.21-1.7s-3.02,.57-4.09,1.72c-1.07,1.15-1.71,2.84-1.94,5.09Z"/><path class="ad" d="M218.26,228.83c-1.61,1.25-3.17,2.19-4.67,2.82-1.51,.63-3.2,.94-5.07,.94-1.71,0-3.21-.34-4.5-1.01-1.29-.68-2.29-1.59-2.99-2.75-.7-1.16-1.05-2.41-1.05-3.76,0-1.82,.58-3.38,1.73-4.66,1.16-1.29,2.74-2.15,4.76-2.59,.42-.1,1.47-.32,3.15-.66,1.68-.34,3.11-.65,4.31-.94,1.2-.28,2.49-.63,3.89-1.04-.08-1.76-.44-3.05-1.06-3.87-.63-.82-1.93-1.23-3.89-1.23-1.69,0-2.97,.24-3.82,.71-.86,.47-1.59,1.18-2.2,2.12-.61,.94-1.04,1.57-1.29,1.87-.25,.3-.79,.45-1.62,.45-.75,0-1.4-.24-1.94-.72-.54-.48-.82-1.09-.82-1.84,0-1.17,.42-2.31,1.25-3.42,.83-1.11,2.12-2.02,3.88-2.73,1.76-.72,3.95-1.07,6.57-1.07,2.93,0,5.23,.35,6.91,1.04,1.68,.69,2.86,1.79,3.55,3.28,.69,1.5,1.04,3.48,1.04,5.96,0,1.56,0,2.89-.01,3.98,0,1.09-.02,2.3-.04,3.64,0,1.25,.21,2.56,.62,3.92,.42,1.36,.62,2.23,.62,2.62,0,.68-.32,1.31-.96,1.87-.64,.56-1.37,.84-2.18,.84-.68,0-1.36-.32-2.03-.96-.67-.64-1.38-1.57-2.12-2.8Zm-.44-9.64c-.98,.36-2.4,.74-4.26,1.14-1.86,.4-3.15,.69-3.87,.88-.72,.19-1.4,.55-2.05,1.1-.65,.55-.98,1.31-.98,2.28s.38,1.87,1.15,2.58c.76,.71,1.77,1.06,3,1.06,1.32,0,2.54-.29,3.65-.87,1.11-.58,1.93-1.32,2.45-2.23,.6-1.01,.9-2.67,.9-4.98v-.95Z"/><path class="ad" d="M237.74,222.97v5.57c0,1.35-.32,2.36-.95,3.04s-1.44,1.01-2.42,1.01-1.75-.34-2.37-1.03c-.62-.68-.93-1.69-.93-3.03v-18.55c0-2.99,1.08-4.49,3.25-4.49,1.11,0,1.9,.35,2.39,1.05,.49,.7,.76,1.73,.81,3.1,.8-1.37,1.62-2.4,2.45-3.1,.84-.7,1.96-1.05,3.36-1.05s2.76,.35,4.08,1.05c1.32,.7,1.98,1.63,1.98,2.78,0,.81-.28,1.49-.84,2.01-.56,.53-1.17,.79-1.82,.79-.24,0-.83-.15-1.77-.45-.94-.3-1.76-.45-2.48-.45-.98,0-1.77,.26-2.39,.77-.62,.51-1.1,1.27-1.44,2.28-.34,1.01-.58,2.21-.71,3.6-.13,1.39-.2,3.09-.2,5.09Z"/><path class="ad" d="M259.08,209.18v.81c1.17-1.55,2.45-2.68,3.84-3.41,1.39-.72,2.99-1.09,4.8-1.09s3.33,.38,4.71,1.15c1.38,.77,2.42,1.85,3.1,3.25,.44,.81,.72,1.69,.85,2.64,.13,.94,.2,2.15,.2,3.61v12.4c0,1.33-.3,2.34-.92,3.03-.61,.68-1.4,1.03-2.38,1.03s-1.8-.35-2.42-1.05c-.62-.7-.93-1.7-.93-3v-11.11c0-2.2-.3-3.88-.92-5.04-.61-1.16-1.83-1.75-3.65-1.75-1.19,0-2.27,.35-3.25,1.06s-1.69,1.68-2.15,2.92c-.33,.99-.49,2.85-.49,5.57v8.35c0,1.35-.31,2.36-.94,3.04-.63,.68-1.44,1.01-2.43,1.01s-1.75-.35-2.37-1.05c-.62-.7-.93-1.7-.93-3v-19.26c0-1.27,.28-2.22,.83-2.84,.55-.63,1.31-.94,2.27-.94,.59,0,1.11,.14,1.59,.42,.47,.28,.85,.69,1.14,1.25,.28,.55,.43,1.23,.43,2.03Z"/><path class="ad" d="M286.59,202.39c-.93,0-1.72-.28-2.38-.85-.66-.57-.99-1.38-.99-2.42,0-.94,.34-1.72,1.01-2.33,.68-.61,1.46-.92,2.36-.92s1.63,.28,2.29,.83c.67,.55,1,1.36,1,2.42s-.33,1.83-.98,2.4c-.65,.58-1.42,.87-2.32,.87Zm3.3,6.88v19.26c0,1.33-.32,2.34-.95,3.03s-1.44,1.03-2.42,1.03-1.77-.35-2.38-1.05c-.61-.7-.92-1.7-.92-3v-19.07c0-1.32,.31-2.31,.92-2.98,.61-.67,1.4-1,2.38-1s1.78,.33,2.42,1c.63,.67,.95,1.6,.95,2.78Z"/><path class="ad" d="M302.83,209.18v.81c1.17-1.55,2.45-2.68,3.84-3.41,1.39-.72,2.99-1.09,4.8-1.09s3.33,.38,4.71,1.15c1.38,.77,2.42,1.85,3.1,3.25,.44,.81,.72,1.69,.85,2.64,.13,.94,.2,2.15,.2,3.61v12.4c0,1.33-.3,2.34-.92,3.03-.61,.68-1.4,1.03-2.38,1.03s-1.8-.35-2.42-1.05c-.62-.7-.93-1.7-.93-3v-11.11c0-2.2-.3-3.88-.92-5.04-.61-1.16-1.83-1.75-3.65-1.75-1.19,0-2.27,.35-3.25,1.06s-1.69,1.68-2.15,2.92c-.33,.99-.49,2.85-.49,5.57v8.35c0,1.35-.31,2.36-.94,3.04-.63,.68-1.44,1.01-2.43,1.01s-1.75-.35-2.37-1.05c-.62-.7-.93-1.7-.93-3v-19.26c0-1.27,.28-2.22,.83-2.84,.55-.63,1.31-.94,2.27-.94,.59,0,1.11,.14,1.59,.42,.47,.28,.85,.69,1.14,1.25,.28,.55,.43,1.23,.43,2.03Z"/><path class="ad" d="M351.48,210.37v19.36c0,2.21-.24,4.12-.71,5.71-.47,1.59-1.23,2.91-2.27,3.96-1.04,1.04-2.41,1.81-4.09,2.32-1.69,.5-3.78,.76-6.29,.76-2.29,0-4.35-.32-6.15-.96-1.81-.64-3.2-1.47-4.17-2.49-.98-1.02-1.46-2.06-1.46-3.14,0-.81,.28-1.48,.83-1.99,.55-.51,1.22-.77,2-.77,.98,0,1.83,.43,2.56,1.29,.36,.44,.73,.88,1.11,1.33,.38,.45,.8,.83,1.27,1.15,.46,.32,1.02,.55,1.67,.71,.65,.15,1.4,.23,2.25,.23,1.72,0,3.06-.24,4.02-.72,.95-.48,1.62-1.15,2-2.01,.38-.86,.61-1.79,.67-2.77,.06-.98,.11-2.57,.15-4.75-1.03,1.43-2.21,2.52-3.55,3.27-1.34,.75-2.94,1.12-4.8,1.12-2.23,0-4.18-.57-5.85-1.71-1.67-1.14-2.95-2.73-3.84-4.79-.9-2.05-1.34-4.42-1.34-7.1,0-2,.27-3.81,.82-5.42,.54-1.61,1.32-2.97,2.33-4.08,1.01-1.11,2.17-1.94,3.49-2.5s2.77-.84,4.35-.84c1.89,0,3.52,.36,4.91,1.09,1.38,.72,2.67,1.86,3.86,3.41v-.9c0-1.16,.28-2.05,.85-2.69,.57-.63,1.3-.95,2.2-.95,1.29,0,2.14,.42,2.56,1.26,.42,.84,.63,2.05,.63,3.63Zm-19.31,8.45c0,2.7,.59,4.74,1.77,6.13,1.18,1.38,2.71,2.08,4.58,2.08,1.11,0,2.15-.3,3.14-.89,.99-.59,1.79-1.49,2.41-2.69,.62-1.2,.93-2.65,.93-4.36,0-2.72-.6-4.83-1.79-6.35-1.2-1.51-2.77-2.27-4.72-2.27s-3.43,.72-4.58,2.17c-1.15,1.45-1.72,3.51-1.72,6.18Z"/><path class="ad" d="M375.02,203.78c0-1.51,.39-2.89,1.18-4.14,.79-1.25,1.95-2.23,3.48-2.97,1.53-.73,3.33-1.1,5.4-1.1s3.82,.38,5.32,1.15c1.5,.77,2.62,1.77,3.36,3,.74,1.24,1.11,2.52,1.11,3.86,0,1.82-.6,3.41-1.81,4.76-1.21,1.35-2.98,2.73-5.32,4.13,.81,.96,1.57,1.86,2.27,2.71,.7,.85,1.38,1.64,2.03,2.37,.65,.73,1.25,1.36,1.78,1.88,.24-.46,.62-1.31,1.14-2.56,.51-1.25,.99-2.16,1.44-2.71,.45-.55,1.08-.83,1.89-.83,.76,0,1.44,.27,2.03,.82,.59,.55,.88,1.21,.88,1.99,0,.72-.25,1.73-.76,3.04-.5,1.31-1.24,2.76-2.2,4.36,.6,.52,1.56,1.31,2.87,2.37,1.31,1.06,2.12,1.78,2.42,2.16,.3,.38,.45,.89,.45,1.53,0,.85-.31,1.56-.92,2.14-.61,.58-1.29,.87-2.04,.87s-1.51-.24-2.22-.73c-.72-.49-2.24-1.68-4.57-3.59-1.06,.99-2.15,1.81-3.28,2.44-1.13,.63-2.34,1.11-3.64,1.42-1.29,.31-2.74,.46-4.33,.46-2.04,0-3.86-.3-5.48-.89-1.62-.59-2.97-1.4-4.04-2.4-1.07-1.01-1.87-2.13-2.39-3.36-.52-1.23-.78-2.48-.78-3.75s.2-2.34,.59-3.36c.39-1.02,.94-1.94,1.65-2.76,.71-.82,1.58-1.6,2.61-2.34,1.03-.74,2.23-1.46,3.6-2.16-1.22-1.53-2.14-2.89-2.77-4.09-.63-1.2-.94-2.43-.94-3.7Zm6.91,11.69c-1.66,.96-2.9,1.92-3.72,2.88-.82,.96-1.23,2.1-1.23,3.42,0,.75,.15,1.46,.45,2.15,.3,.68,.74,1.32,1.32,1.9,.58,.59,1.25,1.03,2.01,1.34,.76,.31,1.57,.46,2.42,.46s1.64-.13,2.42-.39c.78-.26,1.52-.63,2.22-1.11,.7-.48,1.42-1.08,2.17-1.79-1.45-1.33-2.75-2.66-3.91-3.97-1.16-1.31-2.54-2.94-4.15-4.9Zm2.49-6.69c1.66-1.06,2.86-1.95,3.6-2.67,.74-.72,1.11-1.6,1.11-2.62s-.37-1.86-1.11-2.54c-.74-.68-1.67-1.03-2.8-1.03s-2.06,.35-2.82,1.05c-.76,.7-1.14,1.52-1.14,2.47,0,.49,.14,1.01,.43,1.57,.29,.56,.64,1.12,1.06,1.67,.42,.55,.98,1.25,1.66,2.1Z"/><path class="ad" d="M150.51,287.93l-1.71-4.49h-14.55l-1.71,4.59c-.67,1.79-1.24,3-1.71,3.62-.47,.63-1.25,.94-2.32,.94-.91,0-1.72-.33-2.42-1-.7-.67-1.05-1.42-1.05-2.27,0-.49,.08-.99,.24-1.51,.16-.52,.43-1.25,.81-2.17l9.16-23.24c.26-.67,.57-1.47,.94-2.4,.37-.94,.76-1.71,1.17-2.33,.41-.62,.96-1.12,1.63-1.5,.68-.38,1.51-.57,2.5-.57s1.85,.19,2.53,.57c.68,.38,1.22,.88,1.64,1.48,.41,.6,.76,1.25,1.05,1.94,.29,.69,.65,1.62,1.09,2.77l9.35,23.1c.73,1.76,1.1,3.04,1.1,3.83s-.35,1.59-1.04,2.28c-.69,.69-1.53,1.04-2.5,1.04-.57,0-1.06-.1-1.46-.31-.41-.2-.75-.48-1.03-.83-.28-.35-.57-.89-.89-1.61-.32-.72-.59-1.36-.82-1.92Zm-14.36-9.94h10.69l-5.4-14.77-5.3,14.77Z"/><path class="ad" d="M184.57,283.87c0,1.84-.45,3.41-1.34,4.72-.9,1.31-2.22,2.3-3.97,2.98-1.75,.68-3.88,1.01-6.38,1.01s-4.44-.37-6.15-1.1-2.97-1.65-3.78-2.75c-.81-1.1-1.22-2.2-1.22-3.31,0-.73,.26-1.36,.78-1.88,.52-.52,1.18-.78,1.98-.78,.7,0,1.24,.17,1.61,.51,.37,.34,.73,.82,1.07,1.44,.68,1.19,1.5,2.08,2.45,2.66,.95,.59,2.25,.88,3.89,.88,1.33,0,2.43-.3,3.28-.89,.85-.59,1.28-1.27,1.28-2.04,0-1.17-.44-2.03-1.33-2.56-.89-.54-2.35-1.05-4.38-1.54-2.29-.57-4.16-1.17-5.6-1.79-1.44-.63-2.59-1.45-3.45-2.48-.86-1.03-1.29-2.29-1.29-3.78,0-1.33,.4-2.6,1.2-3.78,.8-1.19,1.97-2.14,3.53-2.84,1.55-.71,3.43-1.06,5.63-1.06,1.72,0,3.28,.18,4.65,.54,1.38,.36,2.52,.84,3.44,1.44,.92,.6,1.62,1.27,2.1,2,.48,.73,.72,1.45,.72,2.15,0,.77-.26,1.39-.77,1.88-.51,.49-1.24,.73-2.19,.73-.68,0-1.27-.2-1.75-.59-.48-.39-1.03-.98-1.65-1.76-.5-.65-1.1-1.17-1.78-1.56s-1.61-.59-2.78-.59-2.21,.26-3,.77c-.8,.51-1.2,1.15-1.2,1.92,0,.7,.29,1.27,.88,1.72,.59,.45,1.38,.82,2.37,1.11,.99,.29,2.36,.65,4.1,1.07,2.07,.5,3.76,1.11,5.07,1.81,1.31,.7,2.3,1.53,2.98,2.48,.68,.95,1.01,2.04,1.01,3.26Z"/><path class="ad" d="M211.67,283.87c0,1.84-.45,3.41-1.34,4.72-.9,1.31-2.22,2.3-3.97,2.98-1.75,.68-3.88,1.01-6.38,1.01s-4.44-.37-6.15-1.1-2.97-1.65-3.78-2.75c-.81-1.1-1.22-2.2-1.22-3.31,0-.73,.26-1.36,.78-1.88,.52-.52,1.18-.78,1.98-.78,.7,0,1.24,.17,1.61,.51,.37,.34,.73,.82,1.07,1.44,.68,1.19,1.5,2.08,2.45,2.66,.95,.59,2.25,.88,3.89,.88,1.33,0,2.43-.3,3.28-.89,.85-.59,1.28-1.27,1.28-2.04,0-1.17-.44-2.03-1.33-2.56-.89-.54-2.35-1.05-4.38-1.54-2.29-.57-4.16-1.17-5.6-1.79-1.44-.63-2.59-1.45-3.45-2.48-.86-1.03-1.29-2.29-1.29-3.78,0-1.33,.4-2.6,1.2-3.78,.8-1.19,1.97-2.14,3.53-2.84,1.55-.71,3.43-1.06,5.63-1.06,1.72,0,3.28,.18,4.65,.54,1.38,.36,2.52,.84,3.44,1.44,.92,.6,1.62,1.27,2.1,2,.48,.73,.72,1.45,.72,2.15,0,.77-.26,1.39-.77,1.88-.51,.49-1.24,.73-2.19,.73-.68,0-1.27-.2-1.75-.59-.48-.39-1.03-.98-1.65-1.76-.5-.65-1.1-1.17-1.78-1.56s-1.61-.59-2.78-.59-2.21,.26-3,.77c-.8,.51-1.2,1.15-1.2,1.92,0,.7,.29,1.27,.88,1.72,.59,.45,1.38,.82,2.37,1.11,.99,.29,2.36,.65,4.1,1.07,2.07,.5,3.76,1.11,5.07,1.81,1.31,.7,2.3,1.53,2.98,2.48,.68,.95,1.01,2.04,1.01,3.26Z"/><path class="ad" d="M235.91,280.68h-13.04c.02,1.51,.32,2.85,.92,4,.59,1.16,1.38,2.03,2.37,2.61,.98,.59,2.07,.88,3.26,.88,.8,0,1.53-.09,2.18-.28,.66-.19,1.3-.48,1.92-.88,.62-.4,1.19-.83,1.71-1.28,.52-.46,1.2-1.07,2.03-1.86,.34-.29,.83-.44,1.46-.44,.68,0,1.24,.19,1.66,.56,.42,.37,.63,.9,.63,1.59,0,.6-.24,1.31-.71,2.11-.47,.81-1.18,1.58-2.14,2.32-.95,.74-2.15,1.36-3.59,1.84-1.44,.49-3.1,.73-4.97,.73-4.28,0-7.61-1.22-9.99-3.66-2.38-2.44-3.56-5.75-3.56-9.94,0-1.97,.29-3.8,.88-5.48s1.44-3.13,2.56-4.33c1.12-1.2,2.51-2.13,4.15-2.77,1.64-.64,3.47-.96,5.47-.96,2.6,0,4.84,.55,6.7,1.65,1.86,1.1,3.26,2.52,4.19,4.26,.93,1.74,1.39,3.52,1.39,5.32,0,1.68-.48,2.76-1.44,3.26-.96,.5-2.31,.75-4.05,.75Zm-13.04-3.78h12.08c-.16-2.28-.78-3.98-1.84-5.12-1.07-1.13-2.47-1.7-4.21-1.7s-3.02,.57-4.09,1.72c-1.07,1.15-1.71,2.84-1.94,5.09Z"/><path class="ad" d="M268.48,283.87c0,1.84-.45,3.41-1.34,4.72-.9,1.31-2.22,2.3-3.97,2.98-1.75,.68-3.88,1.01-6.38,1.01s-4.44-.37-6.15-1.1-2.97-1.65-3.78-2.75c-.81-1.1-1.22-2.2-1.22-3.31,0-.73,.26-1.36,.78-1.88,.52-.52,1.18-.78,1.98-.78,.7,0,1.24,.17,1.61,.51,.37,.34,.73,.82,1.07,1.44,.68,1.19,1.5,2.08,2.45,2.66,.95,.59,2.25,.88,3.89,.88,1.33,0,2.43-.3,3.28-.89,.85-.59,1.28-1.27,1.28-2.04,0-1.17-.44-2.03-1.33-2.56-.89-.54-2.35-1.05-4.38-1.54-2.29-.57-4.16-1.17-5.6-1.79-1.44-.63-2.59-1.45-3.45-2.48-.86-1.03-1.29-2.29-1.29-3.78,0-1.33,.4-2.6,1.2-3.78,.8-1.19,1.97-2.14,3.53-2.84,1.55-.71,3.43-1.06,5.63-1.06,1.72,0,3.28,.18,4.65,.54,1.38,.36,2.52,.84,3.44,1.44,.92,.6,1.62,1.27,2.1,2,.48,.73,.72,1.45,.72,2.15,0,.77-.26,1.39-.77,1.88-.51,.49-1.24,.73-2.19,.73-.68,0-1.27-.2-1.75-.59-.48-.39-1.03-.98-1.65-1.76-.5-.65-1.1-1.17-1.78-1.56s-1.61-.59-2.78-.59-2.21,.26-3,.77c-.8,.51-1.2,1.15-1.2,1.92,0,.7,.29,1.27,.88,1.72,.59,.45,1.38,.82,2.37,1.11,.99,.29,2.36,.65,4.1,1.07,2.07,.5,3.76,1.11,5.07,1.81,1.31,.7,2.3,1.53,2.98,2.48,.68,.95,1.01,2.04,1.01,3.26Z"/><path class="ad" d="M295.58,283.87c0,1.84-.45,3.41-1.34,4.72-.9,1.31-2.22,2.3-3.97,2.98-1.75,.68-3.88,1.01-6.38,1.01s-4.44-.37-6.15-1.1-2.97-1.65-3.78-2.75c-.81-1.1-1.22-2.2-1.22-3.31,0-.73,.26-1.36,.78-1.88,.52-.52,1.18-.78,1.98-.78,.7,0,1.24,.17,1.61,.51,.37,.34,.73,.82,1.07,1.44,.68,1.19,1.5,2.08,2.45,2.66,.95,.59,2.25,.88,3.89,.88,1.33,0,2.43-.3,3.28-.89,.85-.59,1.28-1.27,1.28-2.04,0-1.17-.44-2.03-1.33-2.56-.89-.54-2.35-1.05-4.38-1.54-2.29-.57-4.16-1.17-5.6-1.79-1.44-.63-2.59-1.45-3.45-2.48-.86-1.03-1.29-2.29-1.29-3.78,0-1.33,.4-2.6,1.2-3.78,.8-1.19,1.97-2.14,3.53-2.84,1.55-.71,3.43-1.06,5.63-1.06,1.72,0,3.28,.18,4.65,.54,1.38,.36,2.52,.84,3.44,1.44,.92,.6,1.62,1.27,2.1,2,.48,.73,.72,1.45,.72,2.15,0,.77-.26,1.39-.77,1.88-.51,.49-1.24,.73-2.19,.73-.68,0-1.27-.2-1.75-.59-.48-.39-1.03-.98-1.65-1.76-.5-.65-1.1-1.17-1.78-1.56s-1.61-.59-2.78-.59-2.21,.26-3,.77c-.8,.51-1.2,1.15-1.2,1.92,0,.7,.29,1.27,.88,1.72,.59,.45,1.38,.82,2.37,1.11,.99,.29,2.36,.65,4.1,1.07,2.07,.5,3.76,1.11,5.07,1.81,1.31,.7,2.3,1.53,2.98,2.48,.68,.95,1.01,2.04,1.01,3.26Z"/><path class="ad" d="M323.38,279.53v8.86c0,1.4-.32,2.45-.95,3.15-.63,.7-1.47,1.05-2.51,1.05s-1.83-.35-2.45-1.05c-.63-.7-.94-1.75-.94-3.15v-10.62c0-1.68-.06-2.98-.17-3.91-.11-.93-.42-1.69-.93-2.28-.5-.59-1.3-.89-2.39-.89-2.18,0-3.62,.75-4.31,2.25-.69,1.5-1.04,3.65-1.04,6.45v9.01c0,1.38-.31,2.43-.94,3.14-.63,.71-1.45,1.06-2.48,1.06s-1.83-.35-2.48-1.06c-.64-.71-.96-1.75-.96-3.14v-19.07c0-1.25,.29-2.21,.87-2.86,.58-.65,1.34-.98,2.28-.98s1.67,.31,2.28,.92c.61,.61,.92,1.45,.92,2.53v.63c1.16-1.38,2.39-2.4,3.71-3.05,1.32-.65,2.78-.98,4.39-.98s3.12,.33,4.32,1c1.2,.67,2.2,1.68,2.98,3.03,1.12-1.37,2.33-2.38,3.61-3.04,1.29-.66,2.71-.99,4.27-.99,1.82,0,3.39,.36,4.71,1.07,1.32,.72,2.3,1.74,2.95,3.08,.57,1.2,.85,3.1,.85,5.69v13.01c0,1.4-.32,2.45-.95,3.15-.63,.7-1.47,1.05-2.51,1.05s-1.83-.35-2.48-1.06c-.64-.71-.96-1.75-.96-3.14v-11.21c0-1.43-.06-2.58-.18-3.44-.12-.86-.45-1.59-.99-2.17s-1.35-.88-2.44-.88c-.88,0-1.71,.26-2.5,.78-.79,.52-1.4,1.22-1.84,2.1-.49,1.12-.73,3.11-.73,5.96Z"/><path class="ad" d="M364.06,280.68h-13.04c.02,1.51,.32,2.85,.92,4,.59,1.16,1.38,2.03,2.37,2.61,.98,.59,2.07,.88,3.26,.88,.8,0,1.53-.09,2.18-.28,.66-.19,1.3-.48,1.92-.88,.62-.4,1.19-.83,1.71-1.28,.52-.46,1.2-1.07,2.03-1.86,.34-.29,.83-.44,1.46-.44,.68,0,1.24,.19,1.66,.56,.42,.37,.63,.9,.63,1.59,0,.6-.24,1.31-.71,2.11-.47,.81-1.18,1.58-2.14,2.32-.95,.74-2.15,1.36-3.59,1.84-1.44,.49-3.1,.73-4.97,.73-4.28,0-7.61-1.22-9.99-3.66-2.38-2.44-3.56-5.75-3.56-9.94,0-1.97,.29-3.8,.88-5.48s1.44-3.13,2.56-4.33c1.12-1.2,2.51-2.13,4.15-2.77,1.64-.64,3.47-.96,5.47-.96,2.6,0,4.84,.55,6.7,1.65,1.86,1.1,3.26,2.52,4.19,4.26,.93,1.74,1.39,3.52,1.39,5.32,0,1.68-.48,2.76-1.44,3.26-.96,.5-2.31,.75-4.05,.75Zm-13.04-3.78h12.08c-.16-2.28-.78-3.98-1.84-5.12-1.07-1.13-2.47-1.7-4.21-1.7s-3.02,.57-4.09,1.72c-1.07,1.15-1.71,2.84-1.94,5.09Z"/><path class="ad" d="M381.22,269.18v.81c1.17-1.55,2.45-2.68,3.84-3.41,1.39-.72,2.99-1.09,4.8-1.09s3.33,.38,4.71,1.15c1.38,.77,2.42,1.85,3.1,3.25,.44,.81,.72,1.69,.85,2.64,.13,.94,.2,2.15,.2,3.61v12.4c0,1.33-.3,2.34-.92,3.03-.61,.68-1.4,1.03-2.38,1.03s-1.8-.35-2.42-1.05c-.62-.7-.93-1.7-.93-3v-11.11c0-2.2-.3-3.88-.92-5.04-.61-1.16-1.83-1.75-3.65-1.75-1.19,0-2.27,.35-3.25,1.06s-1.69,1.68-2.15,2.92c-.33,.99-.49,2.85-.49,5.57v8.35c0,1.35-.31,2.36-.94,3.04-.63,.68-1.44,1.01-2.43,1.01s-1.75-.35-2.37-1.05c-.62-.7-.93-1.7-.93-3v-19.26c0-1.27,.28-2.22,.83-2.84,.55-.63,1.31-.94,2.27-.94,.59,0,1.11,.14,1.59,.42,.47,.28,.85,.69,1.14,1.25,.28,.55,.43,1.23,.43,2.03Z"/><path class="ad" d="M405.73,266.08h.73v-4c0-1.07,.03-1.92,.09-2.53,.06-.61,.21-1.14,.48-1.57,.26-.46,.63-.83,1.12-1.11,.49-.28,1.03-.43,1.64-.43,.85,0,1.61,.32,2.29,.95,.46,.42,.74,.94,.87,1.55,.12,.61,.18,1.48,.18,2.6v4.54h2.44c.94,0,1.66,.22,2.16,.67,.5,.45,.74,1.02,.74,1.72,0,.9-.35,1.52-1.06,1.88-.71,.36-1.72,.54-3.04,.54h-1.25v12.26c0,1.04,.04,1.84,.11,2.4,.07,.56,.27,1.02,.59,1.37,.32,.35,.83,.53,1.55,.53,.39,0,.92-.07,1.59-.21,.67-.14,1.19-.21,1.56-.21,.54,0,1.02,.22,1.45,.65,.43,.43,.65,.96,.65,1.6,0,1.07-.59,1.9-1.76,2.47s-2.86,.85-5.05,.85c-2.08,0-3.66-.35-4.74-1.05-1.07-.7-1.78-1.67-2.11-2.91-.33-1.24-.5-2.89-.5-4.96v-12.79h-.88c-.96,0-1.69-.23-2.2-.68-.5-.46-.76-1.03-.76-1.73s.26-1.27,.79-1.72c.53-.45,1.3-.67,2.31-.67Z"/></g><polygon class="ae" points="359.78 26.98 359.78 95.3 382.72 75.66 405.66 95.48 405.66 26.98 359.78 26.98"/></svg>