<svg xmlns="http://www.w3.org/2000/svg" xmlns:xlink="http://www.w3.org/1999/xlink" viewBox="0 0 512 452.12"><defs><style>.cls-1{fill:none;}.cls-2{clip-path:url(#clip-path);}.cls-3{fill:#ffa939;}.cls-4{fill:#008cba;}.cls-5{fill:#fff;}.cls-6{fill:#595959;}.cls-7{fill:#ce852e;}.cls-8{fill:#bc782e;}.cls-9{fill:#821717;}</style><clipPath id="clip-path"><rect class="cls-1" y="-11.51" width="512" height="512"/></clipPath></defs><g id="Layer_2" data-name="Layer 2"><g class="cls-2"><circle class="cls-3" cx="218.76" cy="188.63" r="18.62"/></g><rect class="cls-4" x="63.48" y="65.58" width="385.04" height="346.68" rx="33.19"/><rect class="cls-5" x="163.34" y="284.11" width="193.81" height="62.88"/><path class="cls-6" d="M183.53,337.37c-3.79,0-7.58.05-11.37.11a13.3,13.3,0,0,0-9.07,3.4c-1,.93-1.11,1.65,0,2.64a13.3,13.3,0,0,0,8.76,3.46c.81,0,1.62,0,2.43,0q84.66,0,169.31,0c6.39,0,10.95-1.93,13.19-7.15.89,8.91,1.16,13.05-8.34,16.59H168.88c-4.2-1.55-7.57-3.77-8.39-7.71a26,26,0,0,1-.24-5.3q0-102,0-204.06c0-5.09,3.32-8.15,8.65-10.12h14.65Z"/><path class="cls-7" d="M183.61,129.27H348.49c6.91,1.9,9.34,5.88,9.33,11.72q-.19,92.61,0,185.23c0,6.15-4.6,11.19-13.77,11.15-52.49-.19-105-.09-157.47-.09-1,0-2-.07-3-.1Z"/><path class="cls-8" d="M357.21,138.41c0,5.17-.14,125.11,0,187.67,0,6.22-4.6,11.33-13.77,11.29-52.49-.19-105-.09-157.48-.1-1,0-3-.09-3-.09S357.21,133.23,357.21,138.41Z"/><polygon class="cls-9" points="303.83 129.27 303.83 186.69 323.11 170.18 342.39 186.84 342.39 129.27 303.83 129.27"/><rect class="cls-6" x="177.86" y="129.27" width="11.76" height="208"/></g></svg>